<?xml version="1.0" encoding="UTF-8" standalone="no"?>
<!-- Created with Inkscape (http://www.inkscape.org/) -->

<svg
   width="128"
   height="128"
   viewBox="0 0 33.866666 33.866666"
   version="1.1"
   id="svg1"
   xmlns:xlink="http://www.w3.org/1999/xlink"
   xmlns="http://www.w3.org/2000/svg"
   xmlns:svg="http://www.w3.org/2000/svg">
  <defs
     id="defs1">
    <linearGradient
       id="linearGradient4">
      <stop
         style="stop-color:#80c6bd;stop-opacity:1;"
         offset="0"
         id="stop5" />
      <stop
         style="stop-color:#485b68;stop-opacity:1;"
         offset="1"
         id="stop6" />
    </linearGradient>
    <linearGradient
       xlink:href="#linearGradient4"
       id="linearGradient6"
       x1="8.7081299"
       y1="15.301735"
       x2="21.983538"
       y2="15.301735"
       gradientUnits="userSpaceOnUse" />
    <clipPath
       clipPathUnits="userSpaceOnUse"
       id="clipPath7">
      <use
         x="0"
         y="0"
         xlink:href="#g6"
         id="use7" />
    </clipPath>
  </defs>
  <g
     id="layer1">
    <g
       id="g7"
       clip-path="url(#clipPath7)">
      <g
         id="g6">
        <path
           style="fill:url(#linearGradient6);fill-opacity:1;stroke:#000000;stroke-width:0.5;stroke-linejoin:round;stroke-dasharray:none;stroke-opacity:1"
           d="m 11.112499,1.0579553 c 2.469445,0 4.93884,0 6.879156,0 1.940317,0 3.351371,0 4.056941,0.5291773 0.70557,0.5291772 0.70557,1.5874681 0.70557,4.938924 0,3.3514559 0,8.9956774 0,12.1707394 0,3.175061 0,3.880589 -0.529178,4.233374 -0.529177,0.352785 -1.587467,0.352785 -1.852056,0.705632 -0.264589,0.352848 0.264557,1.058501 0.705538,2.646097 0.440981,1.587595 0.793751,4.056989 1.146529,6.526434 -4.586111,0 -9.172222,-10e-7 -13.7583326,-10e-7 0.3527778,-2.469444 0.7055482,-4.938837 1.1465296,-6.526433 0.440981,-1.587596 0.970126,-2.293249 0.705538,-2.646097 C 10.054145,23.282955 8.9958334,23.282955 8.4666665,22.930177 7.9374996,22.577399 7.9374996,21.871858 7.9374996,18.696793 c 0,-3.175064 0,-8.8192815 0,-12.1707368 0,-3.3514553 0,-4.4097453 0.5291778,-4.9389231 C 8.9958552,1.0579553 10.054166,1.0579553 11.112499,1.0579553"
           id="path1"
           transform="translate(2.6458334,3.7797518e-4)" />
      </g>
    </g>
  </g>
</svg>
