<?xml version="1.0" encoding="UTF-8" standalone="no"?>
<!-- Created with Inkscape (http://www.inkscape.org/) -->

<svg
   width="128"
   height="1024"
   viewBox="0 0 128 1024"
   version="1.1"
   id="svg1"
   xmlns="http://www.w3.org/2000/svg"
   xmlns:svg="http://www.w3.org/2000/svg">
  <defs
     id="defs1" />
  <g
     id="layer1">
    <path
       style="fill:#4fff55;stroke:#000000;stroke-width:1.88976;stroke-linejoin:round;fill-opacity:1"
       d="M 32,4 C 49.333333,4 78.666667,4 96.000053,4 113.33344,4 118.66667,4 121.33334,6.66672 124,9.33344 124,14.666667 124,22.666773 c 0,8.000107 0,18.66656 0,26.666614 0,8.000053 0,13.33328 -2.66672,15.999947 C 118.66656,68 113.33333,68 110.66666,70.66672 108,73.33344 108,78.666667 108,237.33645 108,396.00624 108,708 108,1020 c 0,0 -88,0 -88,0 C 20,708 20,396 20,237.33328 20,78.66656 20,73.333333 17.33328,70.666666 14.66656,68 9.3333333,68 6.6666666,65.33328 4,62.66656 4,57.333333 4,49.333227 4,41.33312 4,30.666667 4,22.666613 4,14.66656 4,9.3333333 6.66672,6.6666666 9.33344,4 14.666667,4 32,4 Z"
       id="path2" />
  </g>
</svg>
