<?xml version="1.0" encoding="UTF-8" standalone="no"?>
<!-- Created with Inkscape (http://www.inkscape.org/) -->

<svg
   width="256"
   height="256"
   viewBox="0 0 67.733333 67.733331"
   version="1.1"
   id="svg1"
   xml:space="preserve"
   xmlns="http://www.w3.org/2000/svg"
   xmlns:svg="http://www.w3.org/2000/svg"><defs
     id="defs1" /><g
     id="layer1"><g
       id="g15"
       transform="translate(1.641983,-3.9046257)"><path
         style="fill:#ff5fec;fill-opacity:1;stroke:#ff5fec;stroke-width:0.322797;stroke-linejoin:round;stroke-dasharray:none;stroke-opacity:1"
         d="m 37.835181,214.85416 c -3.7439,-0.0805 -9.703532,-0.40582 -12.195178,-0.66574 -4.311995,-0.44981 -7.474411,-1.24044 -7.936903,-1.98428 -0.762371,-1.22615 4.238489,-4.35794 11.042219,-6.9152 9.030469,-3.39419 17.479804,-5.05799 30.185324,-5.94391 2.01987,-0.14085 5.401976,-0.37662 7.515793,-0.52396 13.770345,-0.95979 20.607286,-2.5815 28.503121,-6.76089 6.088373,-3.22268 11.679313,-7.33212 20.459883,-15.03838 L 118.73673,174 H 124 c 13.07461,0 23.55644,-2.67549 33.78932,-7.81108 2.04005,-1.02385 5.94247,-3.17876 7.49439,-4.28227 0.57562,-0.40929 1.11918,-0.74417 1.20792,-0.74417 0.0887,0 0.69006,0.42132 1.33626,0.93626 2.45089,1.95305 4.84374,2.82163 7.77329,2.82163 5.57373,0 11.31443,-2.68176 14.10151,-6.58749 1.084,-1.51909 1.80467,-3.17974 3.13131,-7.21551 1.67595,-5.0984 2.58266,-6.7543 4.4518,-8.13029 1.22902,-0.90475 3.09602,-1.70393 5.26741,-2.25476 1.74037,-0.44147 7.42549,-1.44989 7.77269,-1.33416 0.21285,0.0709 -2.78099,1.54621 -5.57357,3.04846 -1.70924,0.91948 -2.04742,1.35646 -1.59001,2.05455 0.49051,0.74861 1.12082,0.59129 3.95727,-0.98763 5.77122,-3.2126 9.80155,-6.23283 13.74804,-10.30249 3.78656,-3.90473 6.70168,-8.37598 8.11441,-12.44595 0.26088,-0.75158 0.49082,-1.92222 0.55524,-1.99675 0.0644,-0.0745 0.37673,0.47172 0.64981,0.6092 0.27306,0.13749 1.43474,0.26552 1.63765,0.34348 0.35603,0.13679 -0.43927,0.24969 -1.43177,1.89813 -1.32189,2.19551 -3.6948,7.05271 -4.46448,9.13852 -1.4782,4.00586 -2.49082,8.14284 -2.83959,11.60099 -0.15317,1.51859 -0.14117,1.8376 0.0818,2.17787 0.29489,0.45007 1.27381,0.55938 1.59065,0.17761 0.1009,-0.12158 0.27028,-1.10162 0.3764,-2.17787 0.10611,-1.07625 0.25392,-2.02019 0.32844,-2.09763 0.32843,-0.34133 5.33418,2.53186 6.84006,3.92604 1.45205,1.34433 2.04985,2.60935 2.04985,4.3377 0,3.12666 -1.58385,6.07488 -4.64603,8.64824 -6.2173,5.22485 -7.01044,6.81894 -11.84017,23.79702 -3.33659,11.72914 -4.84711,16.15 -7.0912,20.75384 -3.9378,8.07848 -7.93676,11.21715 -16.05133,12.59824 l -2.13516,0.36341 -76.35362,0.0175 c -41.99449,0.01 -77.27601,-0.002 -78.403379,-0.0265 z"
         id="path4"
         transform="scale(0.26458333)" /><path
         style="fill:#ff5fec;fill-opacity:1;stroke:#ff5fec;stroke-width:0.322797;stroke-linejoin:round;stroke-dasharray:none;stroke-opacity:1"
         d="m 209.72996,136.09562 c 2.8711,-4.271 5.08042,-8.93333 6.57657,-13.87859 0.57276,-1.89315 1.4315,-5.98925 1.48063,-6.67741 0.0724,-1.01406 -0.21237,-0.41221 0.49451,-0.079 0.49038,0.23116 0.81004,0.30617 1.19569,0.36784 0.38566,0.0617 1.11144,-0.23532 1.11144,-0.2028 0,0.0325 -0.63158,0.99246 -0.9021,1.67603 -1.96582,4.96735 -3.37532,11.35111 -3.47079,15.71951 l -0.0401,1.83646 -1.03055,0.82632 c -1.91342,1.53421 -1.88693,1.52289 -4.02883,1.72242 -1.08537,0.10111 -2.50846,0.24684 -2.62335,0.24684 -0.11488,0 0.68432,-0.73559 1.23692,-1.55763 z"
         id="path5"
         transform="scale(0.26458333)" /><path
         style="fill:#ff9ab5;fill-opacity:1;fill-rule:nonzero;stroke:none;stroke-width:0.00785076;stroke-linejoin:round;stroke-dasharray:none;stroke-opacity:1"
         d="m 117,172.44605 c 0,0 -1.41304,-0.4111 -1.44769,-0.44605 -0.0346,-0.035 1.04995,-1.28597 1.44769,-2 0.97264,-1.7461 2.34344,-4.53073 3,-6.48231 1.26167,-3.75016 2.01047,-7.04537 2.14469,-10.98065 L 122,149 l 23.58815,3.51528 c 12.90985,1.92392 22.27594,2.17616 23.88151,2.48472 1.53033,0 0.42334,1.62232 -0.0133,2 -9.53337,8.24664 -22.09578,12.87184 -36.45639,14.6575 -1.17815,0.1465 -3.14317,0.26461 -4,0.3425 -1.84419,0.16765 -9,0.41208 -9,0.41208 z"
         id="path28"
         transform="scale(0.26458333)" /></g><g
       id="g8"
       transform="matrix(0.80251324,-0.269414,0.269414,0.80251324,-4.8651033,13.909912)"
       style="stroke-width:1.00056;stroke-dasharray:none"><path
         style="fill:#ff9ab5;fill-opacity:1;fill-rule:nonzero;stroke:#000000;stroke-width:0.590647;stroke-dasharray:none;stroke-opacity:1"
         id="path7"
         d="m 19.114752,32.813225 c 0.03002,0.05976 -0.02198,0.124204 -0.0761,0.145318 -0.126093,0.0492 -0.250863,-0.0573 -0.287175,-0.172755 -0.07376,-0.234526 0.121923,-0.454383 0.3388,-0.510773 0.399009,-0.103745 0.759696,0.227808 0.841132,0.59989 0.139018,0.635179 -0.388619,1.194719 -0.985085,1.306085 -0.960306,0.1793 -1.790254,-0.619659 -1.93619,-1.526721 -0.224156,-1.393237 0.937818,-2.579897 2.260306,-2.764643 1.954353,-0.273016 3.599958,1.361516 3.827214,3.224417 0.32517,2.665538 -1.91067,4.889402 -4.460633,5.162188 -3.550132,0.379781 -6.489782,-2.606652 -6.810307,-6.013452 -0.435882,-4.632917 3.47226,-8.445192 7.930241,-8.814725 5.940072,-0.492387 10.802214,4.531686 11.220961,10.261165 0.548088,7.499167 -5.810493,13.609878 -13.059149,14.076864 C 8.5796461,48.387744 0.99914953,40.450493 0.48620275,31.40626 -0.16546808,19.916056 9.6214079,10.621016 20.767683,10.0658 34.751671,9.3692338 46.030574,21.304673 46.622838,34.890838 c 0.01574,0.361155 0.02443,0.722618 0.02608,1.084112"
         transform="rotate(18.833206,18.582676,48.567164)" /><path
         style="fill:none;stroke:#000000;stroke-width:0.590647;stroke-linecap:round;stroke-linejoin:round;stroke-dasharray:none"
         d="M 49.211261,45.709289 C 40.216665,49.741666 30.787922,45.074702 30.787922,45.074702"
         id="path8" /></g><path
       style="fill:none;stroke:#000000;stroke-width:0.499999;stroke-linecap:round;stroke-linejoin:round;stroke-dasharray:none"
       d="M 50.325314,53.245373 H 16.458649"
       id="path9" /><path
       style="fill:none;stroke:#000000;stroke-width:0.499999;stroke-linecap:round;stroke-linejoin:round;stroke-dasharray:none"
       d="m 31.327191,45.773764 c -2.681287,2.380968 -5.362519,4.761887 -8.643505,5.776002 -3.280986,1.014115 -7.161386,0.661351 -11.04202,1.366921 -3.8806338,0.70557 -7.761033,2.469388 -7.2318557,3.35135 0.5291773,0.881962 5.467966,0.881962 10.4068557,0.881962"
       id="path10"
       transform="translate(1.641983,-3.9046257)" /><path
       style="display:none;fill:none;stroke:#000000;stroke-width:0.499999;stroke-linecap:round;stroke-linejoin:round;stroke-dasharray:none"
       d="m 48.683331,57.149999 c 1.76389,0 3.527742,0 4.762489,-2.116709 1.234747,-2.116709 1.940274,-6.349874 3.175021,-8.642975 1.234747,-2.293101 2.998566,-2.645864 3.880527,-3.527826 0.881962,-0.881962 0.881962,-2.293017 0.352785,-3.527764 -0.529177,-1.234747 -1.587468,-2.293038 -3.351392,-2.645823 -1.763924,-0.352784 -4.23327,-2.1e-5 -5.468016,0.881941 -1.234747,0.881962 -1.234747,2.293017 -2.116709,3.527764 -0.881962,1.234747 -2.645781,2.293038 -3.826981,2.500315 -1.181199,0.207277 -1.779652,-0.436498 -2.378114,-1.080284"
       id="path11"
       transform="translate(1.641983,-3.9046257)" /><circle
       style="fill:#880248;fill-opacity:1;stroke:#000000;stroke-width:0.499999;stroke-linecap:round;stroke-linejoin:round;stroke-dasharray:none"
       id="path12"
       cx="59.850315"
       cy="25.728708"
       r="0.75" /><circle
       style="fill:#880248;fill-opacity:1;stroke:#000000;stroke-width:0.499999;stroke-linecap:round;stroke-linejoin:round;stroke-dasharray:none"
       id="path12-6"
       cx="63.025314"
       cy="26.787041"
       r="0.75" /><path
       style="fill:none;stroke:#000000;stroke-width:0.499999;stroke-linecap:round;stroke-linejoin:round;stroke-dasharray:none"
       d="m 55.61698,34.195374 c 6.35,-3.175 6.658334,-7.408334 6.658334,-7.408334"
       id="path13" /><path
       style="fill:none;stroke:#000000;stroke-width:0.499999;stroke-linecap:round;stroke-linejoin:round;stroke-dasharray:none"
       d="m 63.55448,27.316207 c -2.645833,3.704166 -2.645834,6.879167 -2.645834,6.879167"
       id="path14" /><path
       style="fill:none;stroke:#000000;stroke-width:0.499999;stroke-linecap:round;stroke-linejoin:round;stroke-dasharray:none"
       d="m 59.100314,25.728707 c -0.308334,4.233333 -2.7878,7.018478 -2.7878,7.018478"
       id="path17" /><path
       style="fill:none;stroke:#000000;stroke-width:0.5;stroke-linejoin:round;stroke-dasharray:none"
       d="m 60.504906,26.094782 c -1.619795,3.463131 -1.387801,5.799559 -1.387801,5.799559"
       id="path1" /><path
       style="fill:none;stroke:#000000;stroke-width:0.499999;stroke-linejoin:round;stroke-dasharray:none"
       d="m 44.080903,42.251997 c 0.613395,0.556278 1.226789,1.112556 2.346655,1.126107 1.119866,0.01355 2.746135,-0.515604 3.559287,-1.66215 0.813152,-1.146545 0.813152,-2.910401 1.765439,-3.871444 0.952287,-0.961043 2.856787,-1.119236 4.761324,-1.277432"
       id="path2"
       transform="translate(1.641983,-3.9046257)" /><path
       style="fill:none;stroke:#000000;stroke-width:0.499999;stroke-linejoin:round;stroke-dasharray:none"
       d="m 59.444204,36.70468 c 1.17554,0.5533 2.351084,1.106602 2.718365,1.956528 0.36728,0.849926 -0.07368,1.996429 -0.691053,2.701988 -0.617369,0.705559 -1.411103,0.970137 -2.072567,2.204881 -0.661463,1.234744 -1.190619,3.43956 -1.896184,5.864934 -0.705564,2.425375 -1.587491,5.071155 -3.086817,6.394072 -1.499327,1.322916 -3.615951,1.322916 -5.732618,1.322916"
       id="path3"
       transform="translate(1.641983,-3.9046257)" /></g></svg>
